<?xml version="1.0" encoding="UTF-8"?>
<svg version="1.1" xmlns="http://www.w3.org/2000/svg" width="212" height="237">
<path d="M0 0 C69.96 0 139.92 0 212 0 C212 78.21 212 156.42 212 237 C142.04 237 72.08 237 0 237 C0 158.79 0 80.58 0 0 Z " fill="#5C6BC0" transform="translate(0,0)"/>
<path d="M0 0 C1.17340159 2.34680319 1.13317702 3.74646895 1.14717102 6.36270142 C1.15790398 7.73781891 1.15790398 7.73781891 1.16885376 9.14071655 C1.17154266 10.14953888 1.17423157 11.15836121 1.17700195 12.19775391 C1.18357315 13.25808838 1.19014435 14.31842285 1.19691467 15.41088867 C1.21668326 18.93278061 1.2283196 22.4546298 1.23828125 25.9765625 C1.24235678 27.178325 1.2464323 28.38008751 1.25063133 29.61826706 C1.27150949 35.981675 1.28580239 42.34506128 1.29516602 48.70849609 C1.30622051 55.27912261 1.3406048 61.84940955 1.38033772 68.41991615 C1.40649976 73.47289657 1.41485763 78.52579615 1.41844749 83.57883835 C1.42331624 86.00049502 1.43493833 88.42214802 1.45348549 90.84373856 C1.47786202 94.23805748 1.47691384 97.63149903 1.4699707 101.02587891 C1.48918579 102.52089432 1.48918579 102.52089432 1.50878906 104.04611206 C1.45677396 111.04005039 0.13148575 116.62195806 -4.72094727 121.85644531 C-10.58337354 125.87336727 -16.70266675 129.34413998 -22.9375 132.75 C-25.18826753 133.99470686 -27.43826708 135.24080343 -29.6875 136.48828125 C-30.77546875 137.0910791 -31.8634375 137.69387695 -32.984375 138.31494141 C-36.83588294 140.46707125 -40.6449559 142.68348135 -44.4375 144.9375 C-52.70674277 149.84771719 -61.03894453 154.64588584 -69.375 159.44165039 C-76.61994267 163.61399922 -83.8421424 167.82162014 -91.01367188 172.11914062 C-97.14603039 175.76557925 -101.9206999 176.97946481 -109 176 C-113.2641206 174.45440901 -117.08278311 172.27171154 -121 170 C-121.87809326 169.49315674 -121.87809326 169.49315674 -122.77392578 168.97607422 C-126.20094118 166.9923925 -129.60952995 164.97904409 -133.01171875 162.953125 C-138.78958019 159.51961288 -144.61328262 156.16658462 -150.4375 152.8125 C-151.53425049 152.18021484 -152.63100098 151.54792969 -153.76098633 150.89648438 C-158.9214639 147.92223186 -164.08380219 144.95125005 -169.24908447 141.98535156 C-190.53142365 129.76397257 -190.53142365 129.76397257 -197.9375 125.3125 C-198.87464844 124.75175781 -199.81179687 124.19101563 -200.77734375 123.61328125 C-203.08132764 121.94096957 -204.50867464 120.41663614 -206 118 C-206 117.34 -206 116.68 -206 116 C-195.26095869 109.79834294 -195.26095869 109.79834294 -190.27929688 106.92749023 C-189.39331818 106.41690819 -189.39331818 106.41690819 -188.48944092 105.89601135 C-187.30492651 105.21339829 -186.12039691 104.53081156 -184.93585205 103.84825134 C-181.6952576 101.98014429 -178.45861002 100.10550684 -175.2265625 98.22265625 C-173.98437626 97.50260199 -172.74218891 96.78254965 -171.5 96.0625 C-170.4584375 95.45535156 -169.416875 94.84820312 -168.34375 94.22265625 C-166 93 -166 93 -164 93 C-162.91830916 94.43526292 -161.91041161 95.92638196 -160.9375 97.4375 C-150.43617358 112.76727136 -134.68974542 122.73141367 -116.51171875 126.49609375 C-97.22700587 129.26331061 -79.46039962 124.87075046 -63.2734375 114.203125 C-56.25253818 108.94348221 -49.30929757 102.72082481 -45 95 C-45 94.01 -45 93.02 -45 92 C-48.64583448 89.87855889 -52.29374082 87.76073989 -55.94360352 85.64624023 C-57.18473847 84.92652788 -58.42530363 84.20583198 -59.6652832 83.48413086 C-61.44853922 82.44645725 -63.23381997 81.41234751 -65.01953125 80.37890625 C-66.09307861 79.7557251 -67.16662598 79.13254395 -68.27270508 78.49047852 C-70.9710694 76.91105464 -70.9710694 76.91105464 -74 76 C-74.9590625 77.546875 -74.9590625 77.546875 -75.9375 79.125 C-80.50294018 85.4959815 -88.2806577 90.54374371 -96 92 C-108.48247441 93.25077426 -117.29324787 91.68287212 -127.6328125 84.05859375 C-134.55445521 78.0392774 -138.4575256 69.70602703 -139.31640625 60.671875 C-139.66922878 50.15548746 -137.36164425 42.06143032 -130.765625 33.81640625 C-124.47588178 27.34576334 -115.93782441 22.68167887 -106.84741211 22.53173828 C-105.77825562 22.54696533 -105.77825562 22.54696533 -104.6875 22.5625 C-103.56710327 22.57385986 -103.56710327 22.57385986 -102.42407227 22.58544922 C-92.94289251 22.86705824 -84.82104941 26.29809556 -78 33 C-76.62577819 34.97212885 -75.28462382 36.96837026 -74 39 C-64.58624999 34.50044249 -55.55796677 29.51340086 -46.55859375 24.2421875 C-42.35777055 21.78282757 -38.13883328 19.35637889 -33.91015625 16.9453125 C-33.29414551 16.59405807 -32.67813477 16.24280365 -32.04345703 15.88090515 C-29.57473609 14.47386681 -27.10562083 13.06752612 -24.63568115 11.66262817 C-22.90109939 10.67579577 -21.16733901 9.68752005 -19.43359375 8.69921875 C-18.3441748 8.07966309 -17.25475586 7.46010742 -16.13232422 6.82177734 C-12.36048571 4.6280549 -8.67224779 2.31332308 -5.00805664 -0.05541992 C-3 -1 -3 -1 0 0 Z " fill="#3848AA" transform="translate(210,61)"/>
<path d="M0 0 C6.37546045 5.29305951 13.36548111 11.15469036 17.1875 18.625 C17.12841797 20.56567383 17.12841797 20.56567383 16.1875 22.625 C13.73486328 24.44018555 13.73486328 24.44018555 10.5078125 26.26171875 C9.6549617 26.74908257 9.6549617 26.74908257 8.78488159 27.24629211 C6.96736042 28.28056223 5.14014973 29.29625751 3.3125 30.3125 C2.08920518 31.00734052 0.8665407 31.70329201 -0.35546875 32.40039062 C-9.23465317 37.43238439 -9.23465317 37.43238439 -12.8125 38.625 C-13.28816406 37.86316406 -13.28816406 37.86316406 -13.7734375 37.0859375 C-18.94660633 29.45479895 -25.93020172 25.03559929 -34.8125 22.625 C-47.28652971 21.31987013 -56.63776552 22.85401792 -66.6875 30.9375 C-74.82224502 41.22555988 -77.96712051 49.30356581 -76.8125 62.625 C-74.97750105 70.83036461 -71.30266884 78.38890721 -64.37890625 83.37890625 C-54.0761753 89.73200186 -43.63239833 91.68780808 -31.72265625 88.90234375 C-29.27728882 87.97167233 -27.07795325 86.93051543 -24.8125 85.625 C-23.83216797 85.06425781 -23.83216797 85.06425781 -22.83203125 84.4921875 C-18.33700163 81.59773346 -15.70110867 78.08921339 -12.8125 73.625 C-5.58811679 77.04927412 1.43594741 80.78336177 8.375 84.75 C9.12966553 85.16942871 9.88433105 85.58885742 10.66186523 86.02099609 C11.36512939 86.42914551 12.06839355 86.83729492 12.79296875 87.2578125 C13.42356201 87.61762207 14.05415527 87.97743164 14.70385742 88.34814453 C16.61217679 89.99048619 16.91494898 91.15006581 17.1875 93.625 C15.35023634 96.98475138 12.71227563 99.75928751 10.1875 102.625 C9.52234375 103.38554687 8.8571875 104.14609375 8.171875 104.9296875 C2.31245329 111.20143889 -4.32460466 115.49633591 -11.8125 119.625 C-12.57304687 120.0478125 -13.33359375 120.470625 -14.1171875 120.90625 C-29.78892438 128.71254913 -49.4385718 128.78367057 -65.84228516 123.34814453 C-77.40199312 119.10528766 -86.29964627 112.38861997 -94.8125 103.625 C-95.73482422 102.68140625 -95.73482422 102.68140625 -96.67578125 101.71875 C-110.54999041 86.51806606 -113.57804933 67.7002995 -112.93994141 47.91503906 C-112.10450154 32.90272888 -104.71685699 19.60424845 -94.8125 8.625 C-94.20921875 7.92890625 -93.6059375 7.2328125 -92.984375 6.515625 C-84.29836936 -2.90029709 -72.85023457 -8.46787721 -60.8125 -12.375 C-60.06871094 -12.62121094 -59.32492188 -12.86742187 -58.55859375 -13.12109375 C-38.72962821 -18.57688123 -16.08085108 -11.97037446 0 0 Z " fill="#FDFDFE" transform="translate(148.8125,62.375)"/>
<path d="M0 0 C1.08169084 1.43526292 2.08958839 2.92638196 3.0625 4.4375 C13.56382642 19.76727136 29.31025458 29.73141367 47.48828125 33.49609375 C66.77299413 36.26331061 84.53960038 31.87075046 100.7265625 21.203125 C108.68344257 15.24230075 115.3004973 8.11747355 121 0 C133.52832916 6.46493909 145.66582724 13.56920203 157.80786133 20.72827148 C159.18263463 21.52582067 160.57842725 22.28921363 162 23 C161.61663859 25.38777564 161.28076913 26.71179042 159.57202148 28.46582031 C153.66641188 32.72610494 147.44842444 36.26160442 141.0625 39.75 C138.81173247 40.99470686 136.56173292 42.24080343 134.3125 43.48828125 C133.22453125 44.0910791 132.1365625 44.69387695 131.015625 45.31494141 C127.16411706 47.46707125 123.3550441 49.68348135 119.5625 51.9375 C111.29325723 56.84771719 102.96105547 61.64588584 94.625 66.44165039 C87.38005733 70.61399922 80.1578576 74.82162014 72.98632812 79.11914062 C66.85396961 82.76557925 62.0793001 83.97946481 55 83 C50.7358794 81.45440901 46.91721689 79.27171154 43 77 C42.41460449 76.66210449 41.82920898 76.32420898 41.22607422 75.97607422 C37.79905882 73.9923925 34.39047005 71.97904409 30.98828125 69.953125 C25.21041981 66.51961288 19.38671738 63.16658462 13.5625 59.8125 C12.46574951 59.18021484 11.36899902 58.54792969 10.23901367 57.89648438 C5.0785361 54.92223186 -0.08380219 51.95125005 -5.24908447 48.98535156 C-26.53142365 36.76397257 -26.53142365 36.76397257 -33.9375 32.3125 C-35.34322266 31.47138672 -35.34322266 31.47138672 -36.77734375 30.61328125 C-39.08132764 28.94096957 -40.50867464 27.41663614 -42 25 C-42 24.34 -42 23.68 -42 23 C-31.26095869 16.79834294 -31.26095869 16.79834294 -26.27929688 13.92749023 C-25.68864441 13.5871022 -25.09799194 13.24671417 -24.48944092 12.89601135 C-23.30492651 12.21339829 -22.12039691 11.53081156 -20.93585205 10.84825134 C-17.6952576 8.98014429 -14.45861002 7.10550684 -11.2265625 5.22265625 C-9.98437626 4.50260199 -8.74218891 3.78254965 -7.5 3.0625 C-6.4584375 2.45535156 -5.416875 1.84820312 -4.34375 1.22265625 C-2 0 -2 0 0 0 Z " fill="#283593" transform="translate(46,154)"/>
<path d="M0 0 C33.66 0 67.32 0 102 0 C100.68 0.66 99.36 1.32 98 2 C96.27230821 2.97189177 94.55164567 3.95632499 92.8359375 4.94921875 C91.29679687 5.83867187 91.29679687 5.83867187 89.7265625 6.74609375 C88.62054688 7.38675781 87.51453125 8.02742187 86.375 8.6875 C85.2084045 9.36210224 84.04173657 10.03657925 82.875 10.7109375 C80.45121634 12.11198213 78.02774522 13.51356514 75.60449219 14.91552734 C71.13795669 17.49914093 66.6683429 20.07741067 62.19848633 22.65527344 C60.06007468 23.88860207 57.92189231 25.12232831 55.78393555 26.35644531 C50.20697015 29.57552887 44.62728356 32.78977717 39.04296875 35.99609375 C33.59553618 39.12456985 28.15835314 42.27023708 22.7265625 45.42578125 C20.37926085 46.78102848 18.02145622 48.11389421 15.65625 49.4375 C14.49950954 50.10331531 13.3432003 50.76988086 12.1875 51.4375 C11.27355469 51.95183594 10.35960937 52.46617188 9.41796875 52.99609375 C5.41466889 56.31385276 2.51206328 60.27528803 1.53681755 65.46461487 C1.35945154 68.28044356 1.33548387 71.05765566 1.36889648 73.87890625 C1.36174118 74.94011688 1.35458588 76.00132751 1.34721375 77.09469604 C1.33037701 80.58440889 1.34970143 84.07282804 1.37109375 87.5625 C1.3702646 89.99812933 1.36780347 92.43375861 1.36378479 94.86938477 C1.3609302 99.96680604 1.37559581 105.0637871 1.40307617 110.16113281 C1.43715749 116.68460136 1.43113702 123.20728297 1.4124136 129.73078918 C1.40182901 134.75808229 1.41079486 139.7851933 1.42579842 144.81246948 C1.43096992 147.21735086 1.430511 149.62225133 1.42425346 152.02713013 C1.4187839 155.3921985 1.43923404 158.75615246 1.46655273 162.12109375 C1.46002686 163.10834442 1.45350098 164.09559509 1.44677734 165.11276245 C1.5311796 171.24830854 2.5372985 175.8606358 6 181 C7.80508284 182.87950729 7.80508284 182.87950729 9.93359375 184.03125 C11.11864502 184.74861328 11.11864502 184.74861328 12.32763672 185.48046875 C13.2095166 185.98191406 14.09139648 186.48335937 15 187 C15.97855957 187.57363281 16.95711914 188.14726562 17.96533203 188.73828125 C20.72388939 190.34037783 23.49307032 191.92136493 26.27130127 193.48904419 C29.3816238 195.24451586 32.48538184 197.01153526 35.58984375 198.77734375 C36.2178186 199.13420761 36.84579346 199.49107147 37.49279785 199.85874939 C43.39558752 203.21666703 49.26434507 206.63160875 55.125 210.0625 C63.16986243 214.7662341 71.21831332 219.46357315 79.28411865 224.13131714 C80.94834649 225.09508697 82.61115946 226.06129871 84.27392578 227.02758789 C89.77169414 230.20583644 95.28167055 233.23705716 101 236 C101 236.33 101 236.66 101 237 C67.67 237 34.34 237 0 237 C0 158.79 0 80.58 0 0 Z " fill="#FDFDFE" transform="translate(0,0)"/>
<path d="M0 0 C33.66 0 67.32 0 102 0 C102 78.21 102 156.42 102 237 C68.67 237 35.34 237 1 237 C3.64625235 235.23583177 6.31116526 233.63606541 9.06640625 232.05078125 C10.09572266 231.4578125 11.12503906 230.86484375 12.18554688 230.25390625 C13.29994141 229.61324219 14.41433594 228.97257813 15.5625 228.3125 C16.73378583 227.63812828 17.90500875 226.96364729 19.07617188 226.2890625 C21.51033548 224.8871083 23.9447697 223.48562573 26.37939453 222.08447266 C32.99485325 218.27658772 39.60517254 214.45978348 46.21582031 210.64355469 C51.79295188 207.42461829 57.37268538 204.21031014 62.95703125 201.00390625 C68.40183174 197.87639378 73.83908988 194.73622686 79.26904297 191.58300781 C80.95314479 190.60681291 82.63925429 189.63406076 84.32861328 188.66699219 C86.18521671 187.60317036 88.03165938 186.52408068 89.875 185.4375 C90.80054688 184.89996094 91.72609375 184.36242187 92.6796875 183.80859375 C96.40520989 180.9046933 98.51693665 177.44919004 100 173 C100.09900393 171.5080824 100.14345996 170.01220657 100.15390015 168.51704407 C100.16250061 167.59892441 100.17110107 166.68080475 100.17996216 165.73486328 C100.18422211 164.72963623 100.18848206 163.72440918 100.19287109 162.6887207 C100.20104858 161.6282402 100.20922607 160.5677597 100.21765137 159.47514343 C100.24250338 155.95869512 100.25902163 152.4422872 100.2734375 148.92578125 C100.28142302 147.1245131 100.28142302 147.1245131 100.28956985 145.2868557 C100.31630151 138.92993177 100.33567578 132.57302748 100.35009766 126.21606445 C100.36673887 119.65323593 100.41151306 113.0909102 100.4624691 106.52827168 C100.49614228 101.47958303 100.50767527 96.43101367 100.51332474 91.38222313 C100.52003768 88.96334176 100.53526069 86.54446825 100.55921555 84.12569618 C100.59086754 80.73613271 100.59090295 77.34792469 100.58349609 73.95825195 C100.59990143 72.96314606 100.61630676 71.96804016 100.63320923 70.94277954 C100.57509311 64.42993919 99.27312027 60.00761114 95 55 C92.19338582 52.66406613 92.19338582 52.66406613 89.01171875 50.97265625 C88.44692307 50.64636734 87.88212738 50.32007843 87.30021667 49.98390198 C86.12318042 49.3067082 84.94131236 48.63784506 83.75482178 47.97735596 C80.98876043 46.43678553 78.25887913 44.83356184 75.51953125 43.24609375 C73.28499315 41.97455881 71.04927698 40.70509234 68.8125 39.4375 C66.34443247 38.03363973 63.87734636 36.6280578 61.41015625 35.22265625 C60.79046967 34.86993652 60.17078308 34.5172168 59.53231812 34.15380859 C53.25932565 30.58206797 47.00226454 26.98289517 40.75 23.375 C39.69707764 22.7675293 38.64415527 22.16005859 37.55932617 21.53417969 C28.87505238 16.51757821 20.21172 11.46526798 11.56152344 6.39013672 C10.62598633 5.84244629 9.69044922 5.29475586 8.7265625 4.73046875 C7.90752441 4.24989014 7.08848633 3.76931152 6.24462891 3.27416992 C4.20067293 2.11391255 2.10218043 1.05109022 0 0 Z " fill="#FDFDFE" transform="translate(110,0)"/>
<path d="M0 0 C1.12039673 0.01135986 1.12039673 0.01135986 2.26342773 0.02294922 C11.9036245 0.30928135 19.63578991 3.84073895 26.6875 10.4375 C30.6875 15.20586158 30.6875 15.20586158 30.6875 18.4375 C29.96498047 18.84887207 29.24246094 19.26024414 28.49804688 19.68408203 C13.49866191 28.2284253 -1.46634352 36.82473888 -16.36328125 45.546875 C-17.21486816 46.04380859 -18.06645508 46.54074219 -18.94384766 47.05273438 C-20.45175944 47.93429236 -21.95696275 48.82051176 -23.45849609 49.71289062 C-28.09295644 52.4375 -28.09295644 52.4375 -30.3125 52.4375 C-34.79579915 42.63028311 -36.47653263 32.42661865 -32.6875 22.0625 C-26.48892177 8.88782152 -14.97436485 -0.21326664 0 0 Z " fill="#5C6BC0" transform="translate(105.3125,83.5625)"/>
<path d="M0 0 C2.08258439 1.03385192 4.12734212 2.14553761 6.140625 3.30859375 C6.70827576 3.63537613 7.27592651 3.96215851 7.86077881 4.29884338 C9.05271871 4.98723763 10.24265514 5.67911135 11.43066406 6.37426758 C13.25314376 7.43933724 15.08296051 8.49085362 16.9140625 9.54101562 C18.07337464 10.2127519 19.23224492 10.88525145 20.390625 11.55859375 C21.44282227 12.17017334 22.49501953 12.78175293 23.57910156 13.41186523 C26 15 26 15 27 17 C22.4204621 24.38635145 15.93338005 29.75198458 7.546875 32.51953125 C-4.07918884 34.71279176 -14.05459296 33.73322588 -24 27 C-28.49786252 23.70025807 -30.46892727 20.87465859 -33 16 C-26.85856987 11.83102018 -20.63608228 7.84627921 -14.25 4.0625 C-13.42628906 3.55654297 -12.60257813 3.05058594 -11.75390625 2.52929688 C-10.95339844 2.05685547 -10.15289062 1.58441406 -9.328125 1.09765625 C-8.6155957 0.66976807 -7.90306641 0.24187988 -7.16894531 -0.19897461 C-4.29430915 -1.26062266 -2.91045338 -0.93317227 0 0 Z " fill="#273593" transform="translate(109,120)"/>
</svg>
